<?xml version="1.0" encoding="utf-8"?>
<!-- Generator: Adobe Illustrator 19.2.1, SVG Export Plug-In . SVG Version: 6.00 Build 0)  -->
<svg version="1.1" id="Layer_1" xmlns="http://www.w3.org/2000/svg" xmlns:xlink="http://www.w3.org/1999/xlink" x="0px" y="0px"
	 viewBox="0 0 800 205" style="enable-background:new 0 0 800 205;" xml:space="preserve">
<style type="text/css">
	.st0{fill:#FFFFFF;}
	.st1{fill:#29A6DE;}
	.st2{fill:#63BDDF;}
	.st3{fill:#F08A20;}
	.st4{fill:#F8A844;}
</style>
<g>
	<g>
		<g>
			<path class="st0" d="M75.8,68.4h-43v32.2h50.3v14.5H14.6V10.4h68v14.7H32.8V54h43V68.4z"/>
			<path class="st0" d="M180.9,115.1h-18.2l-46.7-74.3v74.3H97.9V10.4h18.2L162.9,85V10.4h18V115.1z"/>
			<path class="st0" d="M257.1,88.2c0-2.1-0.3-4-0.9-5.6c-0.6-1.7-1.8-3.2-3.4-4.6c-1.7-1.4-3.9-2.7-6.8-4c-2.9-1.3-6.6-2.6-11.2-4
				c-5-1.5-9.6-3.2-13.8-5.1c-4.2-1.9-7.9-4.1-10.9-6.7s-5.4-5.5-7.1-8.8c-1.7-3.3-2.6-7.1-2.6-11.4c0-4.2,0.9-8.1,2.7-11.6
				c1.8-3.5,4.3-6.6,7.6-9.2c3.3-2.6,7.2-4.6,11.7-6S231.9,9,237.4,9c5.9,0,11.2,0.9,15.9,2.6c4.7,1.7,8.7,4,11.9,6.9
				c3.2,2.9,5.7,6.3,7.5,10.2c1.7,3.9,2.6,8,2.6,12.3h-18.1c0-2.5-0.4-4.9-1.2-7c-0.8-2.1-2-4-3.6-5.5c-1.6-1.6-3.7-2.8-6.2-3.6
				c-2.5-0.9-5.4-1.3-8.8-1.3c-3.2,0-6,0.4-8.3,1.1c-2.3,0.7-4.3,1.7-5.9,3s-2.7,2.8-3.5,4.6s-1.1,3.7-1.1,5.8
				c0,3.9,1.8,7.1,5.5,9.7c3.7,2.6,9.3,5,16.8,7.2c5.9,1.7,11,3.6,15.3,5.8c4.3,2.1,7.9,4.5,10.7,7.2s5,5.7,6.4,9
				c1.4,3.3,2.1,7.1,2.1,11.3c0,4.4-0.9,8.4-2.6,11.9s-4.2,6.5-7.5,9c-3.2,2.5-7.1,4.4-11.7,5.7c-4.6,1.3-9.7,2-15.4,2
				c-5,0-10-0.7-14.9-2c-4.9-1.4-9.3-3.4-13.2-6.2c-3.9-2.8-7-6.2-9.4-10.3s-3.5-9-3.5-14.5h18.2c0,3.3,0.6,6.1,1.7,8.5
				c1.2,2.4,2.8,4.3,4.8,5.8s4.5,2.6,7.2,3.3c2.8,0.7,5.8,1,9,1c6.3,0,11.1-1.3,14.3-3.8C255.5,95.8,257.1,92.4,257.1,88.2z"/>
			<path class="st0" d="M309.5,76.2v38.9h-18.2V10.4h40.1c6.1,0,11.5,0.8,16.2,2.5s8.7,4,12,6.9c3.3,3,5.7,6.5,7.4,10.6
				c1.7,4.1,2.6,8.5,2.6,13.3c0,5.1-0.9,9.6-2.6,13.7c-1.7,4-4.2,7.4-7.4,10.2c-3.3,2.8-7.3,4.9-12,6.4s-10.1,2.2-16.2,2.2H309.5z
				 M309.5,61.6h21.9c3.5,0,6.5-0.4,9-1.3c2.5-0.9,4.6-2.1,6.2-3.7s2.8-3.5,3.5-5.6c0.7-2.2,1.1-4.6,1.1-7.2c0-2.4-0.4-4.8-1.1-7
				s-1.9-4.3-3.5-6s-3.7-3.1-6.2-4.2c-2.5-1-5.5-1.5-9-1.5h-21.9V61.6z"/>
			<path class="st0" d="M404.6,115.1h-18.1V10.4h18.1V115.1z"/>
			<path class="st0" d="M465.5,74.8h-20.3v40.3H427V10.4h36.8c6,0,11.3,0.7,16,2c4.7,1.4,8.7,3.4,11.9,6s5.7,6,7.4,9.9
				c1.7,3.9,2.5,8.5,2.5,13.7c0,7-1.7,12.9-5.1,17.6s-8.1,8.4-14.1,10.9l23.5,43.6v0.9h-19.5L465.5,74.8z M445.2,60.2h18.7
				c3.3,0,6.1-0.4,8.6-1.3c2.4-0.9,4.5-2.1,6.1-3.6c1.6-1.5,2.9-3.4,3.7-5.5c0.8-2.1,1.2-4.4,1.2-7c0-2.7-0.4-5.1-1.2-7.3
				c-0.8-2.2-1.9-4.1-3.5-5.6s-3.6-2.8-6.1-3.6c-2.5-0.8-5.4-1.3-8.9-1.3h-18.6V60.2z"/>
			<path class="st0" d="M580.1,68.4h-43v32.2h50.3v14.5h-68.5V10.4h68v14.7h-49.8V54h43V68.4z"/>
		</g>
		<g>
			<path class="st0" d="M16.6,191.2v-59.4h16.6c3.7,0,7.1,0.6,10.2,1.9s5.8,3.1,8,5.5s4,5.2,5.2,8.5c1.3,3.3,1.9,7,1.9,11.1v5.4
				c0,4.1-0.6,7.8-1.9,11.1c-1.3,3.3-3,6.2-5.3,8.5c-2.3,2.4-5,4.2-8.1,5.4c-3.2,1.3-6.6,1.9-10.4,1.9H16.6z M21.6,136.1v50.9h11.3
				c3.2,0,6.1-0.6,8.6-1.7c2.6-1.1,4.7-2.7,6.5-4.7s3.2-4.4,4.1-7.2c1-2.8,1.4-5.9,1.4-9.2v-5.5c0-3.4-0.5-6.5-1.5-9.3
				c-1-2.8-2.4-5.2-4.1-7.1c-1.8-2-3.9-3.5-6.4-4.5s-5.3-1.6-8.4-1.6H21.6z"/>
			<path class="st0" d="M104.1,162.7H76.3v24.2h31.9v4.2h-37v-59.4H108v4.3H76.3v22.4h27.8V162.7z"/>
			<path class="st0" d="M136.7,183.8l0.3,1.3l0.4-1.3l18.7-52h5.5l-22.1,59.4h-4.8l-22.1-59.4h5.5L136.7,183.8z"/>
			<path class="st0" d="M203.1,162.7h-27.8v24.2h31.9v4.2h-37v-59.4h36.8v4.3h-31.7v22.4h27.8V162.7z"/>
			<path class="st0" d="M222.9,186.9h29.3v4.2h-34.4v-59.4h5.1V186.9z"/>
			<path class="st0" d="M303.1,164.7c0,4.2-0.5,7.9-1.6,11.3c-1.1,3.4-2.6,6.2-4.6,8.6c-2,2.4-4.4,4.2-7.3,5.5
				c-2.9,1.3-6,1.9-9.5,1.9c-3.5,0-6.6-0.6-9.5-1.9s-5.3-3.1-7.3-5.5s-3.6-5.2-4.7-8.6c-1.1-3.4-1.7-7.1-1.7-11.3v-6.4
				c0-4.2,0.6-7.9,1.7-11.3c1.1-3.4,2.7-6.2,4.7-8.6c2-2.4,4.4-4.2,7.3-5.5c2.8-1.3,6-1.9,9.5-1.9c3.5,0,6.7,0.6,9.5,1.9
				c2.9,1.3,5.3,3.1,7.3,5.5c2,2.4,3.6,5.3,4.7,8.6s1.6,7.1,1.6,11.3V164.7z M298.1,158.3c0-3.5-0.4-6.7-1.2-9.5
				c-0.8-2.8-2-5.2-3.5-7.2s-3.5-3.5-5.7-4.6s-4.8-1.6-7.7-1.6c-2.8,0-5.3,0.5-7.6,1.6s-4.1,2.6-5.7,4.6s-2.8,4.4-3.6,7.2
				c-0.8,2.8-1.3,6-1.3,9.5v6.4c0,3.5,0.4,6.7,1.3,9.5c0.8,2.8,2.1,5.2,3.6,7.2c1.6,2,3.5,3.5,5.7,4.6c2.2,1.1,4.8,1.6,7.6,1.6
				c2.9,0,5.5-0.5,7.7-1.6c2.2-1.1,4.1-2.6,5.7-4.6c1.5-2,2.7-4.4,3.5-7.2s1.2-6,1.2-9.5V158.3z"/>
			<path class="st0" d="M320.7,167v24.2h-5v-59.4H336c3.3,0,6.1,0.4,8.6,1.3s4.6,2.1,6.3,3.7c1.7,1.6,3,3.4,3.8,5.6s1.3,4.6,1.3,7.2
				c0,2.7-0.4,5.2-1.3,7.4s-2.1,4-3.8,5.5c-1.7,1.5-3.8,2.6-6.3,3.4c-2.5,0.8-5.4,1.2-8.6,1.2H320.7z M320.7,162.8H336
				c2.6,0,4.9-0.3,6.8-1c1.9-0.7,3.5-1.6,4.7-2.8c1.2-1.2,2.1-2.6,2.7-4.2c0.6-1.6,0.9-3.3,0.9-5.2c0-1.8-0.3-3.6-0.9-5.2
				c-0.6-1.6-1.5-3.1-2.7-4.3c-1.2-1.2-2.7-2.2-4.7-2.9c-1.9-0.7-4.2-1.1-6.8-1.1h-15.2V162.8z"/>
			<path class="st0" d="M373.8,131.8l21.9,52.4l22-52.4h6.7v59.4h-5v-25.9l0.4-26.4l-22.1,52.4h-3.9l-22-52.2l0.4,26.2v25.9h-5
				v-59.4H373.8z"/>
			<path class="st0" d="M472.2,162.7h-27.8v24.2h31.9v4.2h-37v-59.4h36.8v4.3h-31.7v22.4h27.8V162.7z"/>
			<path class="st0" d="M531.2,191.2h-5L492,140.4v50.8H487v-59.4h5.1l34.2,50.9v-50.9h5V191.2z"/>
			<path class="st0" d="M585.4,136.1H565v55.1h-5v-55.1h-20.3v-4.3h45.7V136.1z"/>
		</g>
		<path class="st1" d="M781.8,10.6L657.5,44.2c-3.3,0.9-3.3,5.6,0.1,6.5l64.1,16.2c2,0.5,3.7,1.5,5.1,2.9l58-58.7
			C784,10.5,782.9,10.3,781.8,10.6z"/>
		<path class="st2" d="M726.8,69.8c1.4,1.4,2.4,3.1,2.9,5.1l16.7,64.3c0.9,3.3,5.6,3.4,6.5,0l33-124.6c0.4-1.4-0.2-2.7-1.2-3.5"/>
		<path class="st3" d="M706.4,88.8l-99.6,27c-2.7,0.7-2.6,4.5,0,5.2l51.4,13c1.6,0.4,3,1.2,4.1,2.3l46.5-47
			C708.1,88.8,707.2,88.6,706.4,88.8z"/>
		<path class="st4" d="M708.7,89.3l-46.5,47c1.1,1.1,1.9,2.5,2.4,4.1l13.4,51.5c0.7,2.7,4.5,2.7,5.2,0l26.5-99.8
			C710,91,709.5,89.9,708.7,89.3z"/>
	</g>
</g>
</svg>
